<svg xmlns="http://www.w3.org/2000/svg" width="512" height="512" viewBox="0 0 512 512">
  <defs>
    <linearGradient id="bg" x1="0" y1="0" x2="1" y2="1">
      <stop offset="0%" stop-color="#c4b5fd"/>
      <stop offset="100%" stop-color="#5b21b6"/>
    </linearGradient>
  </defs>
  <rect width="512" height="512" rx="48" fill="url(#bg)"/>
  <circle cx="256" cy="208" r="104" fill="#e2b48f"/>
  <path d="M142 192 C160 88, 352 82, 370 196 L370 158 C346 92, 312 70, 256 70 C196 70, 160 98, 142 162 Z" fill="#312e81"/>
  <path d="M170 316 C198 270, 314 270, 342 316 L360 430 L152 430 Z" fill="#f8fafc"/>
  <ellipse cx="216" cy="214" rx="14" ry="10" fill="#111827"/>
  <ellipse cx="296" cy="214" rx="14" ry="10" fill="#111827"/>
  <path d="M216 256 Q256 286 296 256" stroke="#7c2d12" stroke-width="12" fill="none" stroke-linecap="round"/>
  <path d="M204 178 Q216 164 234 168" stroke="#6b4423" stroke-width="10" fill="none" stroke-linecap="round"/>
  <path d="M278 168 Q296 164 308 178" stroke="#6b4423" stroke-width="10" fill="none" stroke-linecap="round"/>
  <text x="256" y="470" text-anchor="middle" font-family="Arial, Helvetica, sans-serif" font-size="28" font-weight="700" fill="white">Diego Maradona</text>
</svg>